<svg width="60" height="20" viewBox="0 0 144 48" xmlns="http://www.w3.org/2000/svg"><path d="M128 18v20h-16V18h16m-3-12h-10l-2 2h-7v4h28V8h-7zm7 8h-24v24c0 2.2 1.8 4 4 4h16c2.2 0 4-1.8 4-4z" fill="#525f7f"/><g transform="translate(64.297 -32) scale(.83335)" fill="#525f7f" stroke-width="2.4"><path d="M9.244 43.2c-13.248 0-24 10.752-24 24s10.752 24 24 24 24-10.752 24-24-10.752-24-24-24zm0 43.2c-10.604 0-19.2-8.596-19.2-19.2S-1.359 48 9.244 48c10.604 0 19.2 8.596 19.2 19.2s-8.596 19.2-19.2 19.2z"/><circle cx="9.244" cy="67.2" r="12"/></g><path d="M24.001 4c-11.04 0-20 8.961-20 20s8.96 20 20 20 20-8.96 20-20-8.96-20-20-20zm0 36.002c-8.837 0-16-7.164-16-16s7.164-16 16-16c8.837 0 16 7.163 16 16s-7.164 16-16 16z" fill="#525f7f"/></svg>